<?xml version="1.0" standalone="no"?>
<!DOCTYPE svg PUBLIC "-//W3C//DTD SVG 20010904//EN"
 "http://www.w3.org/TR/2001/REC-SVG-20010904/DTD/svg10.dtd">
<svg version="1.0" xmlns="http://www.w3.org/2000/svg"
 width="976.000000pt" height="976.000000pt" viewBox="0 0 976.000000 976.000000"
 preserveAspectRatio="xMidYMid meet">
<metadata>
Created by potrace 1.11, written by Peter Selinger 2001-2013
</metadata>
<g transform="translate(0.000000,976.000000) scale(0.100000,-0.100000)"
fill="#000000" stroke="none">
<path d="M579 9758 c-4 -14 -3 -1113 2 -1125 5 -15 205 -17 2570 -19 1410 -2
2583 -5 2606 -9 24 -3 60 -7 80 -9 34 -4 109 -16 186 -31 15 -3 39 -7 55 -10
23 -4 50 -11 85 -20 4 -2 8 -3 10 -5 1 -1 11 -3 22 -5 116 -19 395 -132 585
-237 106 -58 219 -136 335 -231 68 -56 261 -250 310 -312 22 -27 46 -56 53
-63 7 -8 51 -71 97 -142 92 -137 192 -326 242 -455 17 -44 35 -89 39 -100 4
-11 8 -24 9 -30 0 -5 3 -14 6 -20 4 -5 14 -37 24 -70 9 -33 20 -67 23 -75 3
-8 6 -20 7 -26 2 -7 11 -45 20 -85 21 -90 24 -107 29 -139 30 -181 39 -291 39
-475 0 -146 -8 -298 -17 -326 -3 -8 -7 -43 -11 -79 -3 -36 -10 -81 -15 -100
-5 -19 -12 -51 -15 -70 -9 -55 -42 -178 -69 -261 -166 -507 -479 -952 -868
-1234 -35 -25 -72 -52 -83 -61 -53 -40 -198 -124 -280 -163 -27 -13 -57 -27
-65 -32 -8 -5 -22 -12 -30 -15 -8 -3 -24 -9 -35 -14 -143 -59 -159 -63 -172
-43 -12 18 -220 286 -281 362 -15 18 -31 41 -36 50 -5 9 -12 18 -16 21 -3 3
-48 59 -99 125 -51 66 -100 129 -110 140 -9 11 -27 36 -41 55 -13 19 -28 38
-33 41 -13 9 4 18 44 24 19 2 45 7 59 10 14 3 34 8 45 10 12 3 48 14 80 25 33
11 68 22 78 25 53 12 308 149 354 189 31 27 43 36 48 36 16 0 227 207 275 270
50 66 119 170 112 170 -4 0 -2 4 5 8 22 14 142 272 127 272 -4 0 -2 6 3 13 14
16 44 109 38 115 -2 3 0 12 5 21 4 9 11 37 15 61 4 25 8 48 11 51 9 14 18 172
18 309 0 154 -11 290 -29 360 -4 14 -9 39 -12 55 -2 17 -8 39 -13 50 -4 11
-18 49 -30 85 -12 36 -28 79 -35 95 -7 17 -14 33 -14 38 -2 29 -153 272 -213
344 -56 66 -201 207 -253 245 -27 21 -55 42 -62 47 -44 38 -262 156 -325 176
-12 4 -25 8 -28 10 -33 14 -120 43 -152 49 -13 3 -34 7 -48 10 -39 9 -130 25
-185 32 -52 7 -5060 13 -5082 6 -10 -3 -13 -311 -13 -1492 l0 -1488 574 0 574
0 0 917 -1 916 1939 0 c1205 -1 1951 -4 1970 -10 17 -6 60 -27 95 -48 91 -54
163 -150 188 -251 15 -62 13 -247 -4 -303 -7 -24 -11 -43 -7 -43 3 0 -3 -9
-13 -20 -10 -11 -15 -20 -11 -20 11 0 -26 -52 -72 -101 -24 -26 -64 -58 -90
-70 -26 -13 -49 -27 -52 -30 -7 -9 -58 -21 -110 -26 -71 -6 -239 -7 -246 0 -3
3 -13 3 -22 -1 -21 -7 -64 -7 -85 1 -9 3 -18 3 -21 -1 -5 -9 -110 -7 -124 2
-6 3 -13 3 -15 -2 -5 -6 -54 -8 -82 -2 -5 1 -12 2 -15 1 -17 -7 -210 -5 -210
2 0 4 -8 4 -17 0 -22 -10 -105 -9 -121 1 -7 4 -12 4 -12 -1 0 -6 -127 -7 -245
-2 -5 0 -29 -1 -53 -3 -24 -2 -46 0 -48 4 -3 5 -10 5 -16 2 -15 -10 -128 -10
-128 -1 0 5 -4 5 -10 2 -16 -10 -81 -12 -86 -3 -3 5 -10 5 -16 2 -6 -4 -49 -6
-97 -6 -144 2 -175 2 -206 -1 -16 -1 -40 1 -52 5 -13 4 -23 4 -23 0 0 -5 -15
-7 -32 -5 -18 2 -49 3 -68 3 -19 -1 -46 -1 -58 -1 l-24 1 24 -28 c12 -16 34
-43 48 -62 14 -18 83 -108 154 -199 70 -91 138 -179 150 -194 11 -16 36 -45
53 -65 18 -20 33 -42 33 -49 0 -6 3 -13 8 -15 13 -6 92 -105 92 -116 0 -6 4
-12 9 -14 8 -3 62 -70 222 -278 36 -47 108 -139 160 -206 52 -66 105 -136 119
-154 14 -18 33 -42 42 -54 10 -11 21 -26 25 -31 27 -36 109 -142 118 -152 18
-22 30 -38 60 -78 17 -22 32 -42 35 -45 3 -3 18 -23 35 -45 16 -22 31 -42 34
-45 4 -3 28 -34 56 -70 27 -36 52 -67 55 -70 3 -3 32 -41 65 -85 64 -86 65
-87 96 -125 11 -14 46 -59 77 -100 32 -41 59 -77 62 -80 3 -3 21 -25 40 -50
19 -25 40 -51 47 -58 7 -7 13 -16 13 -20 0 -4 12 -21 28 -37 15 -17 63 -77
106 -135 44 -58 82 -107 86 -110 3 -3 21 -27 40 -53 19 -27 47 -62 63 -78 15
-16 27 -32 27 -35 0 -4 70 -96 117 -154 7 -8 49 -62 93 -120 45 -58 86 -112
93 -120 7 -8 43 -56 82 -105 38 -50 74 -95 80 -102 5 -6 42 -52 80 -103 39
-51 122 -158 185 -240 63 -81 126 -162 140 -180 43 -57 259 -334 277 -356 10
-12 19 -26 20 -31 1 -7 -321 -10 -908 -10 l-909 0 -34 46 c-19 25 -54 71 -78
102 -24 30 -56 73 -73 95 -16 21 -32 41 -35 44 -3 3 -34 43 -70 90 -36 47 -70
92 -77 100 -6 8 -57 74 -112 145 -55 72 -104 135 -109 140 -37 46 -179 230
-187 243 -5 8 -17 23 -25 32 -8 9 -22 26 -30 36 -8 11 -36 47 -63 81 -26 34
-44 64 -40 66 5 2 315 4 691 3 375 0 682 1 682 4 0 3 -10 16 -23 30 -12 14
-34 41 -47 60 -13 19 -29 40 -35 46 -5 6 -22 26 -37 45 -14 19 -36 45 -47 59
-11 14 -24 30 -28 35 -5 6 -45 56 -91 113 -45 56 -82 107 -82 112 0 4 -4 10
-9 12 -7 2 -391 480 -480 597 l-24 31 -1403 0 c-772 0 -1404 -2 -1404 -5 0 -5
28 -42 210 -275 66 -85 129 -166 140 -180 23 -30 211 -273 243 -314 52 -66 72
-91 80 -94 4 -2 7 -8 7 -14 0 -5 19 -33 43 -61 23 -28 47 -57 52 -65 6 -7 18
-22 28 -33 9 -10 17 -22 17 -25 0 -3 6 -11 13 -19 14 -16 32 -38 137 -175 45
-58 87 -113 95 -122 7 -9 44 -56 82 -105 37 -48 73 -95 80 -103 7 -8 26 -33
42 -55 35 -46 35 -46 81 -105 19 -25 40 -52 47 -60 7 -8 26 -33 43 -55 62 -82
75 -99 85 -109 6 -6 30 -38 55 -71 24 -33 49 -65 55 -71 5 -6 19 -23 30 -38
11 -16 25 -33 30 -40 6 -6 23 -29 39 -51 17 -22 33 -42 36 -45 3 -3 50 -63
104 -135 54 -71 105 -135 112 -141 8 -6 14 -14 14 -17 0 -6 17 -29 45 -61 6
-6 44 -55 85 -109 41 -54 97 -126 123 -160 27 -34 69 -89 94 -122 25 -33 48
-62 52 -65 4 -3 12 -12 17 -21 5 -9 23 -34 40 -55 36 -44 160 -204 219 -282
l39 -52 2359 0 2358 0 -18 25 c-10 13 -21 25 -25 25 -5 0 -8 6 -8 14 0 8 -4
16 -8 18 -5 1 -32 34 -62 72 -29 38 -59 76 -66 85 -7 9 -27 34 -43 56 -17 22
-34 45 -39 50 -4 6 -39 51 -77 100 -38 50 -78 99 -88 110 -10 11 -25 32 -33
48 -8 15 -18 27 -22 27 -4 0 -16 13 -25 30 -10 16 -23 35 -30 42 -7 7 -35 42
-62 78 -65 84 -76 99 -97 122 -10 10 -15 18 -10 18 4 0 2 4 -3 8 -11 8 -46 49
-85 102 -14 19 -53 70 -88 114 -91 119 -95 124 -116 148 -10 13 -37 48 -59 78
-22 30 -43 57 -47 60 -3 3 -37 46 -74 95 -38 50 -72 92 -77 93 -5 2 -9 8 -9
13 0 10 -10 24 -41 57 -8 9 -31 38 -49 65 -18 26 -37 47 -42 47 -4 0 -8 7 -8
15 0 8 -3 15 -7 15 -5 0 -19 17 -33 38 -14 20 -30 43 -37 50 -7 7 -56 70 -110
140 -54 70 -103 134 -110 142 -7 8 -49 62 -93 120 -44 58 -89 115 -100 126
-11 12 -20 26 -20 32 0 6 -4 12 -8 14 -7 2 -54 61 -147 183 -21 27 -19 34 13
46 42 16 134 62 171 87 19 12 36 20 39 18 2 -3 9 -1 16 5 6 5 65 43 131 85
106 66 321 222 366 264 8 8 50 46 93 84 157 140 325 324 441 481 16 22 32 42
35 45 9 8 174 259 203 310 63 109 169 325 215 435 43 102 108 277 116 310 13
51 20 72 29 83 5 6 7 12 3 12 -3 0 -1 11 4 25 5 14 12 36 15 48 2 12 9 40 15
62 16 62 48 206 55 245 19 114 33 205 33 220 0 8 3 26 6 40 4 14 9 63 12 110
3 47 8 103 10 125 5 53 5 470 -1 515 -2 19 -6 69 -10 110 -3 41 -8 89 -10 105
-3 17 -7 50 -10 75 -3 25 -12 83 -21 130 -8 47 -17 99 -20 115 -3 17 -10 48
-16 70 -5 22 -11 47 -13 55 -8 42 -40 156 -67 245 -18 55 -33 105 -34 110 -5
20 -64 175 -83 217 -10 24 -25 59 -32 78 -22 58 -133 280 -183 363 -25 43 -46
83 -46 88 0 5 -4 9 -10 9 -5 0 -10 5 -10 11 0 7 -16 34 -35 60 -19 27 -35 53
-35 57 0 5 -9 17 -20 27 -11 10 -20 22 -20 26 0 8 -21 36 -48 65 -7 8 -11 14
-7 14 3 0 -4 10 -15 23 -11 12 -45 54 -76 92 -31 39 -60 72 -65 73 -5 2 -9 8
-9 12 0 5 -10 20 -22 33 -126 131 -165 171 -225 227 -57 54 -156 140 -198 173
-5 4 -21 17 -35 28 -14 11 -37 28 -52 37 -16 9 -28 20 -28 24 0 4 -6 8 -14 8
-8 0 -16 4 -18 9 -3 9 -179 125 -238 157 -19 10 -37 21 -40 24 -9 9 -53 33
-155 83 -55 27 -111 55 -125 62 -34 18 -262 108 -330 130 -30 10 -62 20 -70
23 -59 20 -143 43 -245 67 -109 26 -149 35 -181 40 -11 1 -45 8 -75 14 -86 16
-183 30 -254 36 -27 2 -50 4 -50 5 0 10 -464 13 -2707 16 -1435 3 -2608 3
-2609 2z"/>
</g>
</svg>
