<?xml version="1.0" encoding="utf-8"?>
<!-- Generator: Adobe Illustrator 24.2.0, SVG Export Plug-In . SVG Version: 6.00 Build 0)  -->
<svg version="1.1" id="Layer_1" xmlns:bx="https://boxy-svg.com"
	 xmlns="http://www.w3.org/2000/svg" xmlns:xlink="http://www.w3.org/1999/xlink" x="0px" y="0px" viewBox="0 0 1200 630"
	 style="enable-background:new 0 0 1200 630;" xml:space="preserve">
<style type="text/css">
	.st0{fill:#FF0000;}
	.st1{fill-rule:evenodd;clip-rule:evenodd;fill:#FFE6E6;}
</style>
<g>
	<g id="Title_font_" transform="matrix(0.999778, 0, 0, 0.999112, -0.099978, 0)" bx:origin="0 -4.202311">
		<path class="st0" d="M362.3,451.6c18.3,0,25.8,8.8,25.8,25.8v7.1c0,14.3-5.3,22.6-17.9,25l20.5,26.5c0.7,0.8,0.5,2-0.3,2.7
			c-0.4,0.3-0.8,0.4-1.2,0.4h-15.5c-2,0-2.7-0.5-3.4-1.6l-19-26h-38.6v24.9c0,1.9-0.8,2.7-2.6,2.7h-13c-1.4,0.1-2.6-0.8-2.7-2.2
			c0-0.1,0-0.4,0-0.5v-81c0-2.4,1.2-3.8,3.7-3.8L362.3,451.6z M312.7,496.3h45.9c8.2,0,11.1-3.7,11.1-11.1v-5.3
			c0-7.5-3-11.1-11.1-11.1h-44.4c-1.1,0-1.5,0.5-1.5,1.5C312.7,470.2,312.7,496.3,312.7,496.3z"/>
		<path class="st0" d="M459.9,470.5c16.4,0,20.8,5.4,20.8,20.5v12c0,5.4-2.2,7.1-6.8,7.1h-60.6v3c0,7.9,2.7,11.1,13.2,11.1h50
			c1.5,0,2.2,0.7,2.2,2.2v10.5c0,1.5-0.7,2.3-2.2,2.3h-51.8c-21.6,0-28.5-7.1-28.5-25.3v-18.1c0-18.1,6.9-25.4,28.5-25.4h35.2
			L459.9,470.5L459.9,470.5z M413.3,498.9H462c1.5,0,2-0.5,2-2.2v-5.2c0-5.2-1.8-7.1-7.3-7.1h-30.2c-10.5,0-13.2,3.1-13.2,11.1
			C413.3,495.7,413.3,498.9,413.3,498.9z"/>
		<path class="st0" d="M566.2,470.5v-22.3c0-1.9,0.8-2.7,2.6-2.7h11.8c1.8,0,2.6,0.8,2.6,2.7V514c0,18.1-6.9,25.3-28.5,25.3H521
			c-21.6,0-28.5-7.1-28.5-25.3v-17.9c0-18.1,6.9-25.4,28.5-25.4h45.3L566.2,470.5L566.2,470.5z M566.2,510.5v-24.9h-43.5
			c-10.3,0-13,3.3-13,13.7v11.1c0,10.5,2.7,13.7,13,13.7h30.2C563.5,524.2,566.2,520.9,566.2,510.5L566.2,510.5z"/>
		<path d="M607.9,470.5c1.2-0.1,2.4,0.5,2.9,1.8l28.3,51.6c0.3,0.5,0.8,0.8,1.4,0.8h0.5c0.5,0,1.1-0.3,1.4-0.8l28.3-51.6
			c0.4-1.1,1.6-1.9,2.9-1.8h13.3c1.6,0,2.4,1.5,1.5,3.1l-32.9,59.9c-2.3,4.1-4.6,5.6-10.1,5.6h-9.8c-5.3,0-7.6-1.5-9.9-5.6
			l-32.9-59.9c-0.8-1.6-0.1-3.1,1.5-3.1H607.9z"/>
		<path d="M712.3,445.2c1.8,0,2.6,0.8,2.6,2.7v11.8c0,1.9-0.8,2.9-2.6,2.9h-11.7c-1.4,0.1-2.6-1-2.7-2.3c0-0.1,0-0.4,0-0.5V448
			c-0.1-1.4,0.8-2.6,2.2-2.7c0.1,0,0.4,0,0.5,0L712.3,445.2L712.3,445.2z M712.3,470.5c1.8,0,2.6,1,2.6,2.9v63.1
			c0,1.9-0.8,2.7-2.6,2.7h-11.7c-1.8,0-2.7-0.8-2.7-2.7v-63.1c0-1.9,0.8-2.9,2.7-2.9H712.3z"/>
		<path d="M806,470.5c1.5,0,2.2,0.8,2.2,2.3v10.1c0,1.5-0.7,2.2-2.2,2.2h-54c-4.9,0-6.7,2-6.7,5.6v1.9c0,3.4,1.6,5.4,6.7,5.4h40.5
			c13.5,0,18.8,6,18.8,16.7v6.9c0,11-4.8,17.5-18.9,17.5H731c-1.5,0-2.2-0.7-2.2-2.3V527c0-1.5,0.7-2.2,2.2-2.2h56.9
			c4.9,0,6.8-1.8,6.8-6v-3.4c0-3.3-1.8-5.3-6.8-5.3h-40.4c-13.5,0-18.8-5.8-18.8-16.9v-5.4c0-10.3,4.8-17.1,18.9-17.1L806,470.5z"/>
		<path d="M885.3,470.5c16.4,0,20.8,5.4,20.8,20.5v12c0,5.4-2.2,7.1-6.8,7.1h-60.6v3c0,7.9,2.7,11.1,13.2,11.1h50
			c1.5,0,2.2,0.7,2.2,2.2v10.5c0,1.5-0.7,2.3-2.2,2.3h-51.8c-21.6,0-28.5-7.1-28.5-25.3v-18.1c0-18.1,6.9-25.4,28.5-25.4h35.2
			L885.3,470.5L885.3,470.5z M838.5,498.9h48.7c1.5,0,2-0.5,2-2.2v-5.2c0-5.2-1.8-7.1-7.3-7.1h-30.2c-10.5,0-13.2,3.1-13.2,11.1
			V498.9L838.5,498.9z"/>
	</g>
	<g id="Picto" transform="matrix(0.999778, 0, 0, 0.999112, -0.099978, 0)" bx:origin="-0.447761 0">
		<path class="st1" d="M610.2,344.1h34l-15.1-19.4h-34L610.2,344.1L610.2,344.1z M581.7,263.4l-55.2-71.3h93.6c0.8,0,1.5-0.3,2-1
			c0.5-0.5,1-1.4,1-2c0-1.1,0-1.8,0-3.9c-0.1-0.7-0.4-1.2-0.8-1.6c-0.5-0.5-1.4-1-2-1H502.5v62.8h-61.3V121.3h179.1
			c35.1,0,63.6,28,64.3,63.1c0,1.1,0,3.3,0,4.8c0,25.1-14.8,48-37.6,58.4l6.7,8.7c27-12.8,42.4-41.9,41.2-71.8c0-0.7,0-1.5,0-2.2
			c-0.5-8.3-2.3-16.6-5.3-24.3c-11.6-30.2-38.2-46.6-70.1-46.6H441.6V50h177.6c54.1,0,100.4,26.5,123.4,76.1
			c7.9,17.1,12.2,35.6,13,54.4c0.1,2.3,0,1.1,0.1,3.1c1.4,48.9-22,96.8-64,122l77.2,99.7H580.3l-109.9-142h111.3V263.4z"/>
		<path class="st0" d="M604.8,355.3h62.1l-94-121.5l-23.6-30.6h70.9c7.7,0,14.1-6.4,14.1-14.1c0-0.4,0-4.3,0-4.9
			c-0.7-7.2-6.8-12.8-14.1-12.8H491.3v62.8h-39V132.4h168c28.9,0,52.5,23.2,53.1,52c0,0.3,0,4.2,0,4.6c0,26.2-19.3,48.5-45.3,52.6
			l21.7,28.1c37.4-12.8,57.5-49.6,56-85.6c0-0.5,0-1.9-0.1-2.4c-2.4-41.6-32.8-81.5-86.6-81.5H452.7v-39h166.5
			c79.4,0,122.6,59.1,125.3,119.9c0,0.7,0,2.3,0.1,3c1.4,48-23.2,96.8-69.7,118l47,60.9l24.3,31.4H585.8l-30.2-39l-32.3-41.7
			l-2.2-2.9l-4.3-5.6l-23.6-30.6H589l31,39h-47.3L604.8,355.3z"/>
	</g>
	<path bx:origin="-0.000765 -20.530476" d="M296.7,556.6h-2v17h2V556.6z M313.7,556.6H300v1.9h5.8v15.1h2v-15.1h5.9L313.7,556.6
		L313.7,556.6z M328.5,573.9c1.9,0,3.5-0.7,4.6-1.9l-1.3-1.3c-0.9,1-2,1.5-3.4,1.5c-2.6,0-4.5-1.9-4.5-4.6c0-2.8,1.8-4.6,4.4-4.6
		c1.4,0,2.6,0.5,3.3,1.4l1.3-1.3c-1.1-1.1-2.7-1.8-4.6-1.8c-3.6,0-6.3,2.6-6.3,6.4C322.2,571.3,324.9,573.9,328.5,573.9z
		 M341.3,573.9c3.7,0,6.4-2.6,6.4-6.4c0-3.8-2.7-6.4-6.4-6.4c-3.6,0-6.3,2.6-6.3,6.4C335,571.3,337.7,573.9,341.3,573.9z
		 M341.3,572.2c-2.6,0-4.4-1.9-4.4-4.6c0-2.8,1.8-4.6,4.4-4.6c2.7,0,4.4,1.9,4.4,4.6C345.7,570.3,343.9,572.2,341.3,572.2z
		 M356.9,561.1c-1.8,0-3.4,0.9-4.2,2.3l-0.1-2H351v12.2h1.8v-7.1c0-2.3,2-3.6,3.8-3.6c2,0,3.4,1.4,3.4,3.4v7.3h1.8v-7.5
		C361.8,563.1,359.7,561.1,356.9,561.1z M370.1,573.9c3,0,5.2-1.4,5.2-3.8c0-2.6-2.3-3-5-3.5c-2.4-0.4-3-0.8-3-1.8
		c0-1.3,1.1-1.9,3.1-1.9c1.5,0,2.8,0.4,3.7,1l0.9-1.5c-1.1-0.8-2.8-1.3-4.6-1.3c-2.3,0-5,0.8-5,3.7c0,2.2,1.6,2.9,4.6,3.4
		c1.8,0.3,3.4,0.6,3.4,1.9c0,1.5-1.6,1.9-3.2,1.9s-3.5-0.6-4.3-1.2l-0.9,1.5C366.1,573.3,368.3,573.9,370.1,573.9z M387,561.5v7.1
		c0,2.3-1.7,3.6-3.5,3.6s-3.4-1.1-3.4-3.2v-7.5h-1.8v7.5c0,3,2.1,5,4.9,5c1.8,0,3.2-0.8,3.9-2.2l0.1,1.9h1.6v-12.2L387,561.5
		L387,561.5z M392.9,573.6h1.8v-18.2h-1.8V573.6z M406.4,571.1c-0.8,0.8-1.7,1-2.6,1c-1.6,0-2.4-0.8-2.4-2.5v-6.5h5.2v-1.7h-5.2
		v-3.7h-1.8v3.7H397v1.7h2.6v6.5c0,2.8,1.5,4.3,4.3,4.3c1.7,0,2.7-0.5,3.4-1.2L406.4,571.1z M411.8,559.3c0.7,0,1.3-0.6,1.3-1.3
		s-0.6-1.3-1.3-1.3s-1.3,0.6-1.3,1.3C410.5,558.8,411.1,559.3,411.8,559.3z M412.7,561.5h-1.8v12.2h1.8V561.5z M423.2,561.1
		c-1.8,0-3.4,0.9-4.2,2.3l-0.1-2h-1.6v12.2h1.8v-7.1c0-2.3,2-3.6,3.8-3.6c2,0,3.4,1.4,3.4,3.4v7.3h1.8v-7.5
		C428.1,563.1,426,561.1,423.2,561.1z M443.2,561.5h-4.3c-0.6-0.2-1.3-0.3-2.1-0.3c-3,0-5,1.8-5,4.4c0,1.4,0.5,2.5,1.4,3.3
		c-1,0.3-1.7,1-1.7,2.2c0,0.9,0.4,1.7,1.1,2.2c-1.1,0.6-1.8,1.4-1.8,2.8c0,2.3,2.1,4,6.3,4c4.1,0,6-1.5,6-4.1s-1.9-3.7-6.1-3.7h-2.2
		c-0.9,0-1.5-0.4-1.5-1.2s0.5-1.2,1.4-1.2h0.2c0.6,0.2,1.2,0.2,1.8,0.2c3,0,5-1.8,5-4.5c0-1-0.3-2-0.9-2.7l2.2-0.2v-1.2H443.2z
		 M436.8,568.3c-2,0-3.2-1-3.2-2.8c0-1.7,1.2-2.7,3.2-2.7s3.2,1.1,3.2,2.7C440,567.3,438.8,568.3,436.8,568.3z M441.3,575.9
		c0,1.5-1.2,2.4-4.2,2.4c-3.2,0-4.4-1.1-4.4-2.4c0-0.9,0.5-1.6,1.6-2.1c0.2,0,0.4,0,0.6,0h2.2C440.2,573.9,441.3,574.4,441.3,575.9z
		 M445.2,577.4h1.6l1.3-6.2h-2.2L445.2,577.4z M468.2,555.4v7.8c-0.9-1.3-2.4-2-4.3-2c-3.5,0-6.2,2.6-6.2,6.4c0,3.8,2.7,6.4,6.1,6.4
		c2,0,3.6-0.9,4.5-2.4l0.2,2.1h1.6v-18.2L468.2,555.4L468.2,555.4z M464,572.2c-2.6,0-4.4-1.9-4.4-4.6c0-2.8,1.8-4.6,4.4-4.6
		s4.4,1.8,4.4,4.6C468.4,570.3,466.6,572.2,464,572.2z M475.3,568.2h9.8c0.1-0.5,0.2-1.2,0.2-1.5c0-2.8-1.9-5.6-5.7-5.6
		c-3.7,0-6.2,2.6-6.2,6.3c0,3.9,2.7,6.5,6.3,6.5c1.9,0,3.6-0.7,4.8-1.9l-1.1-1.3c-1,1-2.3,1.5-3.7,1.5
		C477.3,572.2,475.6,570.7,475.3,568.2z M475.3,566.6c0.4-2.3,1.9-3.7,4.3-3.7c2.5,0,3.8,1.7,3.8,3.7v0.1L475.3,566.6L475.3,566.6z
		 M497.2,561.5l-4.2,10.2l-4.2-10.2h-2.1l5.2,12.2h2.1l5.2-12.2H497.2z M502.3,568.2h9.8c0.1-0.5,0.2-1.2,0.2-1.5
		c0-2.8-1.9-5.6-5.7-5.6c-3.7,0-6.2,2.6-6.2,6.3c0,3.9,2.7,6.5,6.3,6.5c1.9,0,3.6-0.7,4.8-1.9l-1.1-1.3c-1,1-2.3,1.5-3.7,1.5
		C504.3,572.2,502.6,570.7,502.3,568.2z M502.3,566.6c0.4-2.3,1.9-3.7,4.3-3.7c2.5,0,3.8,1.7,3.8,3.7v0.1L502.3,566.6L502.3,566.6z
		 M515.6,573.6h1.8v-18.2h-1.8V573.6z M527.1,573.9c3.7,0,6.4-2.6,6.4-6.4c0-3.8-2.7-6.4-6.4-6.4c-3.6,0-6.3,2.6-6.3,6.4
		C520.8,571.3,523.5,573.9,527.1,573.9z M527.1,572.2c-2.6,0-4.4-1.9-4.4-4.6c0-2.8,1.8-4.6,4.4-4.6c2.7,0,4.4,1.9,4.4,4.6
		S529.7,572.2,527.1,572.2z M543,561.1c-2,0-3.6,0.9-4.5,2.4l-0.2-2.1h-1.6v18.2h1.8v-7.8c0.9,1.3,2.4,2,4.3,2
		c3.5,0,6.2-2.6,6.2-6.4C549.1,563.8,546.3,561.1,543,561.1z M542.8,572.2c-2.6,0-4.4-1.8-4.4-4.6s1.8-4.6,4.4-4.6
		c2.6,0,4.4,1.9,4.4,4.6S545.4,572.2,542.8,572.2z M566.9,561.1c-2,0-3.6,1-4.5,2.6c-0.7-1.6-2.3-2.6-4.2-2.6
		c-1.8,0-3.3,0.9-4.1,2.3l-0.1-2h-1.6v12.2h1.8v-7.1c0-2.3,1.8-3.6,3.7-3.6s3.2,1.3,3.2,3.4v7.3h1.8v-7.1c0-2.2,1.7-3.6,3.7-3.6
		c1.9,0,3.1,1.3,3.1,3.4v7.3h1.8v-7.5C571.6,563.1,569.6,561.1,566.9,561.1z M576.7,568.2h9.8c0.1-0.5,0.2-1.2,0.2-1.5
		c0-2.8-1.9-5.6-5.7-5.6c-3.7,0-6.2,2.6-6.2,6.3c0,3.9,2.7,6.5,6.3,6.5c1.9,0,3.6-0.7,4.8-1.9l-1.1-1.3c-1,1-2.3,1.5-3.7,1.5
		C578.7,572.2,577,570.7,576.7,568.2z M576.7,566.6c0.4-2.3,1.9-3.7,4.3-3.7c2.5,0,3.8,1.7,3.8,3.7v0.1L576.7,566.6L576.7,566.6z
		 M595.9,561.1c-1.8,0-3.4,0.9-4.2,2.3l-0.1-2H590v12.2h1.8v-7.1c0-2.3,2-3.6,3.8-3.6c2,0,3.4,1.4,3.4,3.4v7.3h1.8v-7.5
		C600.8,563.1,598.7,561.1,595.9,561.1z M612.4,571.1c-0.8,0.8-1.7,1-2.6,1c-1.6,0-2.4-0.8-2.4-2.5v-6.5h5.2v-1.7h-5.2v-3.7h-1.8
		v3.7H603v1.7h2.6v6.5c0,2.8,1.5,4.3,4.3,4.3c1.7,0,2.7-0.5,3.4-1.2L612.4,571.1z M628.4,561.1c-2,0-3.9,0.7-5.1,1.7l0.8,1.4
		c1.1-0.9,2.7-1.3,4-1.3c2.1,0,3.3,1.1,3.3,3.2v0.6c-1.3-0.4-2.7-0.6-3.9-0.6c-2.5,0-4.9,1.1-4.9,3.9c0,2.6,2.1,3.9,4.3,3.9
		c1.8,0,3.6-0.8,4.7-2.3l0.1,2h1.6v-7.5C633.3,562.8,631.5,561.1,628.4,561.1z M627.2,572.2c-1.6,0-2.7-0.8-2.7-2.1
		c0-1.6,1.5-2.2,3.3-2.2c1.2,0,2.5,0.2,3.6,0.6v0.2C631.5,570.7,629.4,572.2,627.2,572.2z M643.3,561.1c-1.8,0-3.4,0.9-4.2,2.3
		l-0.1-2h-1.6v12.2h1.8v-7.1c0-2.3,2-3.6,3.8-3.6c2,0,3.4,1.4,3.4,3.4v7.3h1.8v-7.5C648.3,563.1,646.1,561.1,643.3,561.1z
		 M662,555.4v7.8c-0.9-1.3-2.4-2-4.3-2c-3.5,0-6.2,2.6-6.2,6.4c0,3.8,2.7,6.4,6.1,6.4c2,0,3.6-0.9,4.5-2.4l0.2,2.1h1.6v-18.2
		L662,555.4L662,555.4z M657.8,572.2c-2.6,0-4.4-1.9-4.4-4.6c0-2.8,1.8-4.6,4.4-4.6c2.6,0,4.4,1.8,4.4,4.6
		C662.2,570.3,660.4,572.2,657.8,572.2z M675.5,568.2h9.8c0.1-0.5,0.2-1.2,0.2-1.5c0-2.8-1.9-5.6-5.7-5.6c-3.7,0-6.2,2.6-6.2,6.3
		c0,3.9,2.7,6.5,6.3,6.5c1.9,0,3.6-0.7,4.8-1.9l-1.1-1.3c-1,1-2.3,1.5-3.7,1.5C677.4,572.2,675.8,570.7,675.5,568.2z M675.5,566.6
		c0.4-2.3,1.9-3.7,4.3-3.7c2.5,0,3.8,1.7,3.8,3.7v0.1L675.5,566.6L675.5,566.6z M703.2,561.1c-2,0-3.6,1-4.5,2.6
		c-0.7-1.6-2.3-2.6-4.2-2.6c-1.8,0-3.3,0.9-4.1,2.3l-0.1-2h-1.6v12.2h1.8v-7.1c0-2.3,1.8-3.6,3.7-3.6s3.2,1.3,3.2,3.4v7.3h1.8v-7.1
		c0-2.2,1.7-3.6,3.7-3.6c1.9,0,3.1,1.3,3.1,3.4v7.3h1.8v-7.5C707.9,563.1,706,561.1,703.2,561.1z M718,561.1c-1.9,0-3.4,0.7-4.3,2
		v-7.8h-1.8v18.2h1.6l0.2-2.1c0.9,1.5,2.5,2.4,4.5,2.4c3.4,0,6.1-2.6,6.1-6.4C724.3,563.7,721.5,561.1,718,561.1z M717.9,572.2
		c-2.6,0-4.4-1.8-4.4-4.6s1.8-4.6,4.4-4.6c2.6,0,4.4,1.9,4.4,4.6C722.3,570.3,720.6,572.2,717.9,572.2z M728.7,568.2h9.8
		c0.1-0.5,0.2-1.2,0.2-1.5c0-2.8-1.9-5.6-5.7-5.6c-3.7,0-6.2,2.6-6.2,6.3c0,3.9,2.7,6.5,6.3,6.5c1.9,0,3.6-0.7,4.8-1.9l-1.1-1.3
		c-1,1-2.3,1.5-3.7,1.5C730.7,572.2,729,570.7,728.7,568.2z M728.7,566.6c0.4-2.3,1.9-3.7,4.3-3.7c2.5,0,3.8,1.7,3.8,3.7v0.1
		L728.7,566.6L728.7,566.6z M751.7,555.4v7.8c-0.9-1.3-2.4-2-4.3-2c-3.5,0-6.2,2.6-6.2,6.4c0,3.8,2.7,6.4,6.1,6.4
		c2,0,3.6-0.9,4.5-2.4l0.2,2.1h1.6v-18.2L751.7,555.4L751.7,555.4z M747.5,572.2c-2.6,0-4.4-1.9-4.4-4.6c0-2.8,1.8-4.6,4.4-4.6
		c2.6,0,4.4,1.8,4.4,4.6C751.9,570.3,750.1,572.2,747.5,572.2z M767.4,555.4v7.8c-0.9-1.3-2.4-2-4.3-2c-3.5,0-6.2,2.6-6.2,6.4
		c0,3.8,2.7,6.4,6.1,6.4c2,0,3.6-0.9,4.5-2.4l0.2,2.1h1.6v-18.2L767.4,555.4L767.4,555.4z M763.2,572.2c-2.6,0-4.4-1.9-4.4-4.6
		c0-2.8,1.8-4.6,4.4-4.6c2.6,0,4.4,1.8,4.4,4.6C767.5,570.3,765.8,572.2,763.2,572.2z M774.4,568.2h9.8c0.1-0.5,0.2-1.2,0.2-1.5
		c0-2.8-1.9-5.6-5.7-5.6c-3.7,0-6.2,2.6-6.2,6.3c0,3.9,2.7,6.5,6.3,6.5c1.9,0,3.6-0.7,4.8-1.9l-1.1-1.3c-1,1-2.3,1.5-3.7,1.5
		C776.4,572.2,774.7,570.7,774.4,568.2z M774.4,566.6c0.4-2.3,1.9-3.7,4.3-3.7c2.5,0,3.8,1.7,3.8,3.7v0.1L774.4,566.6L774.4,566.6z
		 M797.4,555.4v7.8c-0.9-1.3-2.4-2-4.3-2c-3.5,0-6.2,2.6-6.2,6.4c0,3.8,2.7,6.4,6.1,6.4c2,0,3.6-0.9,4.5-2.4l0.2,2.1h1.6v-18.2
		L797.4,555.4L797.4,555.4z M793.2,572.2c-2.6,0-4.4-1.9-4.4-4.6c0-2.8,1.8-4.6,4.4-4.6c2.6,0,4.4,1.8,4.4,4.6
		C797.6,570.3,795.8,572.2,793.2,572.2z M814,573.9c3,0,5.2-1.4,5.2-3.8c0-2.6-2.3-3-5-3.5c-2.4-0.4-3-0.8-3-1.8
		c0-1.3,1.1-1.9,3.1-1.9c1.5,0,2.8,0.4,3.7,1l0.9-1.5c-1.1-0.8-2.8-1.3-4.6-1.3c-2.3,0-5,0.8-5,3.7c0,2.2,1.6,2.9,4.6,3.4
		c1.8,0.3,3.4,0.6,3.4,1.9c0,1.5-1.6,1.9-3.2,1.9c-1.6,0-3.5-0.6-4.3-1.2l-0.9,1.5C810,573.3,812.3,573.9,814,573.9z M831.2,561.5
		l-4,9.8l-4.3-9.8h-2.1l5.4,12.2l-2,4.9h1.8l7.1-17h-1.9V561.5z M839.5,573.9c3,0,5.2-1.4,5.2-3.8c0-2.6-2.3-3-5-3.5
		c-2.4-0.4-3-0.8-3-1.8c0-1.3,1.1-1.9,3.1-1.9c1.5,0,2.8,0.4,3.7,1l0.9-1.5c-1.1-0.8-2.8-1.3-4.6-1.3c-2.3,0-5,0.8-5,3.7
		c0,2.2,1.6,2.9,4.6,3.4c1.8,0.3,3.4,0.6,3.4,1.9c0,1.5-1.6,1.9-3.2,1.9c-1.6,0-3.5-0.6-4.3-1.2l-0.9,1.5
		C835.5,573.3,837.7,573.9,839.5,573.9z M855.4,571.1c-0.8,0.8-1.7,1-2.6,1c-1.6,0-2.4-0.8-2.4-2.5v-6.5h5.2v-1.7h-5.2v-3.7h-1.8
		v3.7H846v1.7h2.6v6.5c0,2.8,1.5,4.3,4.3,4.3c1.7,0,2.7-0.5,3.4-1.2L855.4,571.1z M859.8,568.2h9.8c0.1-0.5,0.2-1.2,0.2-1.5
		c0-2.8-1.9-5.6-5.7-5.6c-3.7,0-6.2,2.6-6.2,6.3c0,3.9,2.7,6.5,6.3,6.5c1.9,0,3.6-0.7,4.8-1.9l-1.1-1.3c-1,1-2.3,1.5-3.7,1.5
		C861.8,572.2,860.1,570.7,859.8,568.2z M859.8,566.6c0.4-2.3,1.9-3.7,4.3-3.7c2.5,0,3.8,1.7,3.8,3.7v0.1L859.8,566.6L859.8,566.6z
		 M887.6,561.1c-2,0-3.6,1-4.5,2.6c-0.7-1.6-2.3-2.6-4.2-2.6c-1.8,0-3.3,0.9-4.1,2.3l-0.1-2h-1.6v12.2h1.8v-7.1
		c0-2.3,1.8-3.6,3.7-3.6s3.2,1.3,3.2,3.4v7.3h1.8v-7.1c0-2.2,1.7-3.6,3.7-3.6c1.9,0,3.1,1.3,3.1,3.4v7.3h1.8v-7.5
		C892.3,563.1,890.3,561.1,887.6,561.1z M900.5,573.9c3,0,5.2-1.4,5.2-3.8c0-2.6-2.3-3-5-3.5c-2.4-0.4-3-0.8-3-1.8
		c0-1.3,1.1-1.9,3.1-1.9c1.5,0,2.8,0.4,3.7,1l0.9-1.5c-1.1-0.8-2.8-1.3-4.6-1.3c-2.3,0-5,0.8-5,3.7c0,2.2,1.6,2.9,4.6,3.4
		c1.8,0.3,3.4,0.6,3.4,1.9c0,1.5-1.6,1.9-3.2,1.9c-1.6,0-3.5-0.6-4.3-1.2l-0.9,1.5C896.5,573.3,898.8,573.9,900.5,573.9z"/>
</g>
</svg>
