<svg id="Calque_1" data-name="Calque 1" xmlns="http://www.w3.org/2000/svg" xmlns:xlink="http://www.w3.org/1999/xlink" viewBox="0 0 469.9 103.1"><defs><style>.cls-1{fill:none;}.cls-2{clip-path:url(#clip-path);}.cls-3{fill:#31363a;}</style><clipPath id="clip-path" transform="translate(-165.1 -259.5)"><rect class="cls-1" width="800" height="600"/></clipPath></defs><g class="cls-2"><path class="cls-3" d="M357.5,281.9h-5.4a1.5,1.5,0,0,0-1.4,1.5v33.1a1.4,1.4,0,0,0,1.4,1.5h5.4a1.4,1.4,0,0,0,1.5-1.5V283.4a1.5,1.5,0,0,0-1.5-1.5" transform="translate(-165.1 -259.5)"/><path class="cls-3" d="M314,281.6a17.5,17.5,0,0,0-12.2,4.6,1,1,0,0,1-1.4,0c-2.5-3-6.4-4.6-11.2-4.6a15.4,15.4,0,0,0-10.6,3.7v-1.9a1.5,1.5,0,0,0-1.4-1.5H272a1.5,1.5,0,0,0-1.5,1.5v33.1A1.5,1.5,0,0,0,272,318h5.4a1.5,1.5,0,0,0,1.5-1.5v-17c0-6.5,3.3-10.2,9.1-10.2s7.6,3,7.6,8.8v18.4a1.5,1.5,0,0,0,1.5,1.5h5.4a1.5,1.5,0,0,0,1.5-1.5v-17c0-6.5,3.3-10.2,9-10.2s7.7,3,7.7,8.8v18.4a1.4,1.4,0,0,0,1.4,1.5h5.4a1.4,1.4,0,0,0,1.5-1.5V297.4c0-10-5.4-15.8-15-15.8" transform="translate(-165.1 -259.5)"/><path class="cls-3" d="M550.8,281.9H518.2a1.5,1.5,0,0,0-1.5,1.5v4.8a1.5,1.5,0,0,0,1.5,1.5h11.1a.9.9,0,0,1,.9.9v25.9a1.5,1.5,0,0,0,1.5,1.5h5.6a1.5,1.5,0,0,0,1.5-1.5V290.6a.9.9,0,0,1,.9-.9h11.1a1.5,1.5,0,0,0,1.5-1.5v-4.8a1.5,1.5,0,0,0-1.5-1.5" transform="translate(-165.1 -259.5)"/><path class="cls-3" d="M634.7,316.5,620,297.8a1.1,1.1,0,0,1,0-1.3l13.3-13a.9.9,0,0,0-.6-1.6h-7.8a1.4,1.4,0,0,0-1,.4L609,296a1,1,0,0,1-1.6-.7V283.4a1.5,1.5,0,0,0-1.5-1.5h-5.3a1.5,1.5,0,0,0-1.5,1.5v33.1a1.4,1.4,0,0,0,1.5,1.5h5.3a1.4,1.4,0,0,0,1.5-1.5v-7.7a1.3,1.3,0,0,1,.5-1.1l4.6-4.3a1.1,1.1,0,0,1,1.4.1l11.2,14a1.7,1.7,0,0,0,1.2.5H634a.9.9,0,0,0,.7-1.5" transform="translate(-165.1 -259.5)"/><path class="cls-3" d="M575.9,281.9h-5.3a1.5,1.5,0,0,0-1.5,1.5v33.1a1.4,1.4,0,0,0,1.5,1.5h5.3a1.4,1.4,0,0,0,1.5-1.5V283.4a1.5,1.5,0,0,0-1.5-1.5" transform="translate(-165.1 -259.5)"/><path class="cls-3" d="M401.6,297.8a1.1,1.1,0,0,1,0-1.3l13.3-13a.9.9,0,0,0-.6-1.6h-7.8a1.4,1.4,0,0,0-1,.4L390.6,296a1,1,0,0,1-1.6-.7V283.4a1.5,1.5,0,0,0-1.5-1.5h-5.3a1.5,1.5,0,0,0-1.5,1.5v33.1a1.4,1.4,0,0,0,1.5,1.5h5.3a1.4,1.4,0,0,0,1.5-1.5v-7.7a1.3,1.3,0,0,1,.5-1.1l4.6-4.3a1.1,1.1,0,0,1,1.4.1l11.2,14a1.7,1.7,0,0,0,1.2.5h7.7a.9.9,0,0,0,.7-1.5Z" transform="translate(-165.1 -259.5)"/><path class="cls-3" d="M486.8,281.6c-10.9,0-18.8,7.7-18.8,18.4s7.9,18.4,18.8,18.4,18.7-7.7,18.7-18.4-7.9-18.4-18.7-18.4m0,29.2c-6.1,0-10.3-4.5-10.3-10.8s4.2-10.8,10.3-10.8S497,293.5,497,300s-4.2,10.8-10.2,10.8" transform="translate(-165.1 -259.5)"/><path class="cls-3" d="M455,281.8l-2.5-.2c-4.9,0-8.8,1.4-11.3,3.9v-2.1a1.5,1.5,0,0,0-1.5-1.5h-5.1a1.5,1.5,0,0,0-1.5,1.5v33.1a1.5,1.5,0,0,0,1.5,1.5H440a1.5,1.5,0,0,0,1.5-1.5V300c0-6.6,3.4-10.3,9.5-10.3h4.2a1.4,1.4,0,0,0,1.6-1.5v-4.5a2,2,0,0,0-1.8-2" transform="translate(-165.1 -259.5)"/><path class="cls-3" d="M240,279.7l-.4-.5a12.7,12.7,0,0,0-3.9-2.9l-13.6-7.5-13.7-7.5a13.5,13.5,0,0,0-4.6-1.8h-.7a11.4,11.4,0,0,0-5.4,1.8l-13.6,7.5-13.7,7.5a14.1,14.1,0,0,0-3.9,2.9l-.4.5-.3.7a12,12,0,0,0-.7,4.6v30a11.4,11.4,0,0,0,1,5.3,12.2,12.2,0,0,0,4.3,3.4l13.7,7.5,13.6,7.5a11.4,11.4,0,0,0,4.6,1.7h1.5a11.4,11.4,0,0,0,4.6-1.7l27.3-15c2.1-1.1,3.6-2.2,4.3-3.4l.3-.7a11.9,11.9,0,0,0,.8-4.6V285a11.9,11.9,0,0,0-.8-4.6l-.3-.7m-53,35.9a1,1,0,0,1-1.4.8l-4.8-2.7a3.6,3.6,0,0,1-1.9-3.2V296a.9.9,0,0,1,1.3-.8l5.8,3.2a2,2,0,0,1,1,1.6Zm40.3-5.1a3.8,3.8,0,0,1-1.9,3.2l-4.9,2.7a.9.9,0,0,1-1.3-.8V296.4a1,1,0,0,0-1.4-.8l-8.8,4.8a3.7,3.7,0,0,0-1.9,3.2v19a1.7,1.7,0,0,1-.9,1.6l-1.4.8a3.6,3.6,0,0,1-3.5,0l-1.3-.8a1.8,1.8,0,0,1-1-1.6v-19a3.8,3.8,0,0,0-1.8-3.2l-18.3-10v-.9a3.6,3.6,0,0,1,1.9-3.2l2-1.1a3.4,3.4,0,0,1,3.4,0l15.1,8.3a3.6,3.6,0,0,0,3.5,0l7-3.8a.9.9,0,0,0,0-1.6l-15.7-8.6a.9.9,0,0,1,0-1.6l5.2-2.9a3.6,3.6,0,0,1,3.5,0l20.6,11.3a3.8,3.8,0,0,1,1.9,3.2Z" transform="translate(-165.1 -259.5)"/><path class="cls-3" d="M275.6,353.8v8.5h-4.9V340.7h7.4c4.6,0,7.4,2.3,7.4,6.7a6,6,0,0,1-4.9,6l6.2,8.9H281Zm2.2-3.9c1.7,0,2.7-.9,2.7-2.5a2.4,2.4,0,0,0-2.7-2.5h-2.2v5Z" transform="translate(-165.1 -259.5)"/><polygon class="cls-3" points="158.1 81.2 170.3 81.2 170.3 85.7 162.9 85.7 162.9 89.6 170.2 89.6 170.2 94.1 162.9 94.1 162.9 98.3 170.4 98.3 170.4 102.8 158.1 102.8 158.1 81.2"/><path class="cls-3" d="M372.8,362.3v-4.6l3.7.3c2.1,0,3.1-.6,3.1-1.9s-.4-1.5-1.9-2.5l-2.2-1.5a6.4,6.4,0,0,1-3.3-5.6c0-3.8,2.8-6.1,7.4-6.1l3.3.3v4.4l-3.2-.3c-1.7,0-2.6.5-2.6,1.5s.4,1.4,1.6,2.2l1.9,1.2c2.7,1.8,3.9,3.7,3.9,6.3,0,4.2-2.9,6.6-7.9,6.6l-3.8-.3" transform="translate(-165.1 -259.5)"/><polygon class="cls-3" points="256.4 81.2 268.6 81.2 268.6 85.7 261.2 85.7 261.2 89.6 268.5 89.6 268.5 94.1 261.2 94.1 261.2 98.3 268.7 98.3 268.7 102.8 256.4 102.8 256.4 81.2"/><polygon class="cls-3" points="306.3 81.2 311.1 81.2 311.1 98.3 318.5 98.3 318.5 102.8 306.3 102.8 306.3 81.2"/><polygon class="cls-3" points="354.8 81.2 359.7 81.2 359.7 98.3 367.1 98.3 367.1 102.8 354.8 102.8 354.8 81.2"/><polygon class="cls-3" points="403.4 81.2 415.6 81.2 415.6 85.7 408.2 85.7 408.2 89.6 415.5 89.6 415.5 94.1 408.2 94.1 408.2 98.3 415.7 98.3 415.7 102.8 403.4 102.8 403.4 81.2"/><path class="cls-3" d="M623.2,353.8v8.5h-4.9V340.7h7.3c4.6,0,7.4,2.3,7.4,6.7a6,6,0,0,1-4.8,6l6.2,8.9h-5.9Zm2.2-3.9c1.7,0,2.7-.9,2.7-2.5a2.4,2.4,0,0,0-2.7-2.5h-2.2v5Z" transform="translate(-165.1 -259.5)"/></g></svg>